<svg xmlns="http://www.w3.org/2000/svg" viewBox="0 0 1024 1024" preserveAspectRatio="xMidYMid meet" version="1.2" baseProfile="tiny-ps" xml:space="preserve"><title>Beige Lane</title>
<g>
<path d="M 438.75 522.75 L 438.50 716.50 L 433.25 716.80 C430.29,716.97 428.00,716.68 428.00,716.13 C428.00,715.59 427.21,714.94 426.25,714.69 C425.17,714.41 425.56,714.19 427.25,714.12 C428.76,714.05 430.00,713.55 430.00,713.00 C430.00,712.45 430.83,712.00 431.85,712.00 C435.16,712.00 437.21,701.55 436.45,688.50 C436.11,682.45 435.59,649.83 435.31,616.00 C435.04,582.17 434.76,551.80 434.70,548.50 C434.57,541.67 434.80,473.33 434.97,468.00 C435.03,466.08 435.20,437.05 435.35,403.50 C435.61,344.89 436.20,329.00 438.12,329.00 C438.63,329.00 438.90,410.67 438.75,522.75 ZM 666.98 669.25 C666.98,688.09 666.61,704.06 666.18,704.74 C665.57,705.71 665.12,705.72 664.19,704.79 C662.73,703.33 662.57,689.38 664.02,688.49 C664.63,688.11 664.97,683.04 664.87,675.68 C664.78,668.86 664.39,664.60 664.00,666.00 C663.59,667.41 663.11,662.22 662.89,654.12 C662.52,640.53 662.38,639.66 660.25,638.25 C656.84,635.99 657.53,635.00 662.50,635.00 L 667.00 635.00 ZM 564.34 361.54 C563.71,363.20 563.13,363.27 561.00,361.96 C560.17,361.46 557.57,360.56 555.22,359.98 L 550.94 358.91 L 551.07 354.20 C551.13,351.62 550.96,348.26 550.68,346.75 C550.40,345.24 550.47,344.01 550.84,344.02 C553.61,344.12 565.24,359.21 564.34,361.54 ZM 579.63 602.34 C579.88,613.21 579.64,616.77 578.62,617.66 C577.54,618.59 577.07,617.56 576.14,612.16 C574.81,604.44 574.34,587.88 575.40,586.16 C575.93,585.30 576.56,585.41 577.72,586.58 C578.99,587.85 579.38,591.01 579.63,602.34 ZM 586.75 715.75 C587.06,716.67 585.30,717.00 580.08,717.00 C574.64,717.00 573.00,716.67 573.00,715.58 C573.00,714.80 573.56,713.97 574.25,713.72 C574.94,713.47 573.36,713.33 570.75,713.40 C568.14,713.48 566.00,713.29 566.00,712.99 C566.00,711.62 579.01,699.72 579.06,701.03 C579.10,701.84 579.27,703.96 579.45,705.75 C579.62,707.54 579.34,709.00 578.81,709.00 C578.29,709.00 577.21,709.65 576.42,710.44 C574.54,712.32 576.01,713.27 581.92,713.97 C584.35,714.26 586.53,715.06 586.75,715.75 ZM 525.22 517.65 C523.17,517.85 520.10,518.22 518.38,518.47 C514.57,519.03 513.86,518.42 514.65,515.27 C515.06,513.61 514.56,511.89 513.04,509.84 C511.82,508.19 511.06,506.61 511.35,506.32 C511.63,506.03 515.64,507.68 520.25,509.99 C528.96,514.35 532.20,517.33 529.40,518.40 C528.57,518.72 528.13,518.60 528.42,518.13 C528.71,517.67 527.27,517.45 525.22,517.65 ZM 537.21 332.04 C535.40,331.13 534.28,331.21 531.78,332.46 C530.05,333.32 528.92,333.75 529.26,333.41 C530.19,332.48 526.85,329.35 524.00,328.49 C520.85,327.53 520.18,326.49 520.77,323.45 C521.16,321.39 521.63,321.12 523.86,321.67 C527.30,322.51 530.04,324.33 535.25,329.21 C537.68,331.50 538.52,332.71 537.21,332.04 ZM 577.46 395.32 C576.53,399.01 574.13,398.08 571.96,393.18 C569.21,386.96 570.21,380.38 573.70,381.72 C575.38,382.36 578.17,392.46 577.46,395.32 ZM 502.96 406.55 C502.35,407.28 501.49,410.05 501.04,412.69 C500.60,415.34 500.18,416.43 500.12,415.12 C499.92,411.07 497.72,404.73 494.70,399.50 C493.11,396.75 492.40,395.06 493.11,395.75 C493.82,396.44 495.13,397.00 496.02,397.00 C497.88,397.00 503.36,401.84 503.79,403.86 C503.94,404.60 503.57,405.81 502.96,406.55 ZM 439.00 316.50 C439.00,321.42 438.58,325.00 438.01,325.00 C436.32,325.00 434.00,317.98 434.00,312.88 C434.00,308.34 434.18,308.00 436.50,308.00 C438.97,308.00 439.00,308.10 439.00,316.50 ZM 551.00 534.50 C551.68,535.33 552.08,535.95 551.87,535.90 C546.18,534.37 541.86,532.03 540.51,529.75 C539.62,528.24 539.14,526.58 539.45,526.08 C539.76,525.57 539.31,524.45 538.44,523.58 C537.57,522.71 537.28,522.00 537.81,522.00 C538.33,522.00 539.32,522.67 540.00,523.50 C540.68,524.33 541.77,525.00 542.42,525.00 C543.07,525.00 545.35,526.80 547.50,529.00 C549.65,531.20 551.03,533.00 550.58,533.00 C550.13,533.00 550.32,533.67 551.00,534.50 ZM 497.37 626.75 C498.14,628.03 497.79,628.11 494.77,627.31 C493.22,626.91 493.37,626.21 496.14,620.89 C499.04,615.30 499.36,615.02 501.01,616.51 C502.38,617.75 502.60,618.85 502.00,621.50 C501.58,623.37 501.51,625.17 501.84,625.50 C503.09,626.76 499.56,627.88 498.09,626.69 C496.93,625.76 496.78,625.77 497.37,626.75 ZM 500.58 600.25 C501.69,603.75 500.43,601.81 497.36,595.28 C495.63,591.61 494.43,588.06 494.68,587.39 C494.94,586.72 496.57,586.25 498.32,586.34 C500.78,586.46 501.50,586.95 501.50,588.50 C501.50,589.60 501.84,591.02 502.24,591.65 C502.65,592.28 502.32,594.08 501.51,595.65 C500.69,597.22 500.28,599.29 500.58,600.25 ZM 579.36 429.75 C579.04,432.09 578.46,434.00 578.09,434.00 C576.14,434.00 575.00,431.01 575.00,425.88 C575.00,419.59 575.73,416.71 577.10,417.56 C577.60,417.87 578.06,417.30 578.12,416.31 C578.19,415.31 578.63,416.98 579.10,420.00 C579.56,423.02 579.68,427.41 579.36,429.75 ZM 495.00 314.36 C495.00,313.97 493.88,314.71 492.50,316.00 C490.77,317.63 490.00,317.91 490.00,316.92 C490.00,316.14 488.31,314.01 486.25,312.18 L 482.50 308.87 L 488.35 309.45 C491.57,309.78 495.36,310.65 496.78,311.39 L 499.35 312.74 L 497.18 313.91 C495.98,314.55 495.00,314.75 495.00,314.36 ZM 526.61 472.67 C526.76,475.55 524.54,475.97 518.75,474.14 C515.37,473.08 514.00,472.12 514.00,470.82 C514.00,469.29 514.83,469.00 519.25,469.02 C525.25,469.03 526.45,469.63 526.61,472.67 ZM 500.00 502.96 C500.00,504.41 485.60,504.04 483.00,502.53 C481.62,501.73 480.95,501.05 481.50,501.02 C482.05,500.99 481.83,500.53 481.00,500.00 C479.86,499.26 480.24,499.03 482.63,499.02 C486.74,499.00 500.00,502.01 500.00,502.96 ZM 517.89 705.23 C516.58,705.51 514.76,706.06 513.85,706.44 C512.94,706.82 511.93,706.69 511.59,706.15 C510.84,704.93 515.30,701.32 519.94,699.38 C523.01,698.10 523.54,698.12 524.94,699.59 C526.38,701.10 526.30,701.14 524.00,699.99 C522.06,699.03 521.76,699.03 522.65,699.98 C524.10,701.52 521.42,704.47 517.89,705.23 ZM 566.77 554.88 C569.31,559.49 569.73,560.98 568.74,561.80 C567.15,563.12 562.62,558.42 563.44,556.30 C563.73,555.53 563.53,555.17 562.99,555.51 C562.44,555.84 561.96,555.75 561.90,555.31 C560.90,547.13 562.43,546.99 566.77,554.88 ZM 554.50 487.17 C554.78,487.45 554.22,488.39 553.26,489.26 C551.65,490.72 551.25,490.67 548.50,488.71 C546.85,487.53 545.14,485.99 544.70,485.29 C544.26,484.58 543.27,484.00 542.51,484.00 C541.74,484.00 540.87,483.60 540.57,483.11 C540.00,482.19 543.12,482.11 544.00,483.02 C545.99,485.11 550.45,487.16 550.78,486.15 C551.00,485.51 551.58,485.24 552.09,485.55 C552.59,485.86 553.00,485.61 553.00,485.00 C553.00,484.39 553.45,484.16 554.00,484.50 C554.55,484.84 555.00,484.39 555.00,483.50 C555.00,482.61 555.48,482.18 556.07,482.54 C556.77,482.98 556.60,483.78 555.56,484.93 C554.70,485.88 554.22,486.89 554.50,487.17 ZM 487.25 715.36 C482.09,716.21 481.22,716.16 480.47,714.96 C479.42,713.26 482.03,711.00 485.04,711.00 C491.64,711.00 493.34,714.35 487.25,715.36 ZM 479.36 388.42 C478.52,388.74 477.54,388.93 477.17,388.85 C476.80,388.77 475.23,388.51 473.67,388.28 C471.65,387.97 471.01,387.42 471.42,386.34 C471.74,385.51 472.04,383.86 472.08,382.67 C472.12,381.48 472.39,381.07 472.66,381.76 C472.94,382.45 473.59,382.76 474.09,382.44 C474.60,382.13 475.28,382.58 475.61,383.44 C475.94,384.30 477.02,385.00 478.00,385.00 C480.30,385.00 481.35,387.65 479.36,388.42 ZM 611.00 639.94 C611.00,640.52 610.50,641.00 609.88,641.00 C609.21,641.00 609.01,640.10 609.37,638.75 C609.70,637.51 609.98,636.16 609.99,635.75 C610.00,634.89 617.00,634.71 617.00,635.57 C617.00,636.68 614.23,638.90 613.62,638.29 C613.28,637.95 613.00,638.22 613.00,638.89 C613.00,639.57 612.55,639.84 612.00,639.50 C611.45,639.16 611.00,639.36 611.00,639.94 ZM 500.44 432.31 C500.16,433.03 498.37,434.32 496.46,435.19 L 492.98 436.77 L 495.24 432.71 C497.49,428.66 500.96,426.05 499.69,429.36 C499.35,430.26 499.48,431.00 500.00,431.00 C500.52,431.00 500.71,431.59 500.44,432.31 ZM 369.25 715.76 C368.77,717.19 364.00,717.47 364.00,716.07 C364.00,715.56 363.21,714.94 362.25,714.69 C360.63,714.27 360.64,714.22 362.31,714.12 C363.30,714.05 363.84,713.55 363.50,713.00 C362.60,711.54 366.92,711.77 368.40,713.26 C369.09,713.95 369.47,715.08 369.25,715.76 ZM 474.07 640.54 C473.56,640.23 472.95,641.21 472.72,642.73 C472.49,644.25 472.23,644.77 472.15,643.88 C472.07,642.98 471.72,640.84 471.38,639.12 C470.77,636.08 470.84,636.00 474.45,636.00 C477.81,636.00 478.00,636.14 476.57,637.57 C475.71,638.44 475.00,639.59 475.00,640.13 C475.00,640.67 474.58,640.86 474.07,640.54 ZM 360.06 394.00 C359.54,394.00 358.94,395.69 358.73,397.75 C358.51,399.81 358.33,397.00 358.33,391.50 C358.32,386.00 358.50,382.96 358.72,384.75 C358.95,386.54 359.55,388.00 360.06,388.00 C360.58,388.00 361.00,389.35 361.00,391.00 C361.00,392.65 360.58,394.00 360.06,394.00 ZM 483.12 513.00 C482.59,513.00 481.45,513.27 480.58,513.61 C478.57,514.38 478.45,511.70 480.43,510.06 C481.57,509.11 482.08,509.28 482.97,510.94 C483.61,512.14 483.67,513.00 483.12,513.00 ZM 477.00 578.20 C477.00,578.64 475.88,579.00 474.50,579.00 C471.82,579.00 471.01,576.59 473.38,575.69 C474.76,575.15 477.00,576.71 477.00,578.20 ZM 476.91 445.94 C477.48,446.29 476.63,447.08 475.03,447.68 C472.25,448.73 471.00,448.51 471.00,446.95 C471.00,445.95 475.64,445.16 476.91,445.94 ZM 372.47 314.95 C373.12,316.00 369.60,318.26 368.70,317.37 C368.39,317.06 368.38,316.17 368.68,315.40 C369.29,313.80 371.59,313.53 372.47,314.95 ZM 596.80 676.67 C596.64,678.98 596.12,679.81 594.87,679.72 C593.14,679.58 593.31,678.85 595.97,675.00 C596.77,673.84 596.96,674.22 596.80,676.67 ZM 570.36 563.50 C570.05,564.33 569.61,565.00 569.39,565.00 C569.18,565.00 569.00,564.33 569.00,563.50 C569.00,562.67 569.44,562.00 569.97,562.00 C570.50,562.00 570.68,562.67 570.36,563.50 ZM 494.00 587.00 C494.00,587.55 493.80,588.00 493.56,588.00 C493.32,588.00 492.84,587.55 492.50,587.00 C492.16,586.45 492.36,586.00 492.94,586.00 C493.52,586.00 494.00,586.45 494.00,587.00 Z" fill="rgb(63,40,23)"/>
<path d="M 369.25 715.76 C369.47,715.08 369.09,713.95 368.40,713.26 C366.92,711.77 362.60,711.54 363.50,713.00 C363.84,713.55 363.30,714.05 362.31,714.12 C360.64,714.22 360.63,714.27 362.25,714.69 C363.21,714.94 364.00,715.56 364.00,716.07 C364.00,716.33 364.16,716.52 364.41,716.67 C360.28,716.59 357.81,716.48 357.68,716.34 C357.31,715.97 357.00,623.94 357.00,511.83 L 357.00 308.00 L 439.00 308.00 L 439.00 314.30 C438.97,308.08 438.73,308.00 436.50,308.00 C434.18,308.00 434.00,308.34 434.00,312.88 C434.00,317.98 436.32,325.00 438.01,325.00 C438.54,325.00 438.94,321.94 438.99,317.59 L 438.79 483.80 C438.83,392.25 438.57,329.00 438.12,329.00 C436.20,329.00 435.61,344.89 435.35,403.50 C435.20,437.05 435.03,466.08 434.97,468.00 C434.80,473.33 434.57,541.67 434.70,548.50 C434.76,551.80 435.04,582.17 435.31,616.00 C435.59,649.83 436.11,682.45 436.45,688.50 C437.21,701.55 435.16,712.00 431.85,712.00 C430.83,712.00 430.00,712.45 430.00,713.00 C430.00,713.55 428.76,714.05 427.25,714.12 C425.56,714.19 425.17,714.41 426.25,714.69 C427.21,714.94 428.00,715.59 428.00,716.13 C428.00,716.30 428.23,716.45 428.63,716.56 L 398.43 716.76 C386.36,716.84 375.40,716.82 367.89,716.72 C368.57,716.52 369.10,716.19 369.25,715.76 ZM 579.63 602.34 C579.62,601.67 579.60,601.03 579.59,600.42 C580.01,610.08 579.69,620.29 578.51,626.60 C570.24,670.72 536.43,705.55 493.62,714.02 C492.22,714.30 490.80,714.56 489.41,714.79 C492.75,713.45 490.69,711.00 485.04,711.00 C482.03,711.00 479.42,713.26 480.47,714.96 C480.80,715.48 481.15,715.79 481.86,715.89 C477.11,716.46 473.37,716.62 472.20,716.23 C471.29,715.93 471.00,706.03 471.00,675.92 L 471.00 636.00 L 473.32 636.00 C480.42,636.00 490.78,629.49 495.43,622.10 C495.67,621.71 495.91,621.31 496.14,620.89 C493.37,626.21 493.22,626.91 494.77,627.31 C497.79,628.11 498.14,628.03 497.37,626.75 C496.78,625.77 496.93,625.76 498.09,626.69 C499.56,627.88 503.09,626.76 501.84,625.50 C501.51,625.17 501.58,623.37 502.00,621.50 C502.60,618.85 502.38,617.75 501.01,616.51 C499.44,615.09 499.08,615.28 496.54,620.13 C499.90,613.39 500.57,604.33 498.31,597.27 C500.68,602.17 501.57,603.37 500.58,600.25 C500.28,599.29 500.69,597.22 501.51,595.65 C502.32,594.08 502.65,592.28 502.24,591.65 C501.84,591.02 501.50,589.60 501.50,588.50 C501.50,586.95 500.78,586.46 498.32,586.34 C496.57,586.25 494.94,586.72 494.68,587.39 C494.49,587.89 495.12,590.01 496.17,592.58 C492.02,585.76 483.89,580.25 476.10,579.13 L 475.04 578.98 C476.16,578.90 477.00,578.58 477.00,578.20 C477.00,576.71 474.76,575.15 473.38,575.69 C471.53,576.39 471.62,578.02 473.02,578.69 L 471.50 578.48 L 471.24 538.24 L 470.98 498.00 L 475.76 498.00 C477.44,498.00 481.19,498.51 485.61,499.27 C484.41,499.11 483.37,499.01 482.63,499.02 C480.24,499.03 479.86,499.26 481.00,500.00 C481.83,500.53 482.05,500.99 481.50,501.02 C480.95,501.05 481.62,501.73 483.00,502.53 C485.60,504.04 500.00,504.41 500.00,502.96 C500.00,502.47 496.51,501.44 492.56,500.56 C498.08,501.65 503.56,502.89 506.75,503.87 C509.06,504.57 513.37,506.54 518.11,508.95 C514.46,507.21 511.59,506.08 511.35,506.32 C511.06,506.61 511.82,508.19 513.04,509.84 C514.56,511.89 515.06,513.61 514.65,515.27 C513.86,518.42 514.57,519.03 518.38,518.47 C520.10,518.22 523.17,517.85 525.22,517.65 C527.27,517.45 528.71,517.67 528.42,518.13 C528.13,518.60 528.57,518.72 529.40,518.40 C531.51,517.59 530.19,515.70 525.68,512.95 C530.83,515.79 535.56,518.63 537.90,520.44 C539.82,521.93 542.12,523.97 544.54,526.29 C543.55,525.50 542.76,525.00 542.42,525.00 C541.77,525.00 540.68,524.33 540.00,523.50 C539.32,522.67 538.33,522.00 537.81,522.00 C537.28,522.00 537.57,522.71 538.44,523.58 C539.31,524.45 539.76,525.57 539.45,526.08 C539.14,526.58 539.62,528.24 540.51,529.75 C541.86,532.03 546.18,534.37 551.87,535.90 C552.08,535.95 551.68,535.33 551.00,534.50 C550.32,533.67 550.13,533.00 550.58,533.00 C550.83,533.00 550.52,532.45 549.83,531.59 C557.14,539.20 564.00,547.54 564.00,549.47 C564.00,549.73 564.70,551.17 565.73,553.05 C562.19,547.07 560.98,547.82 561.90,555.31 C561.96,555.75 562.44,555.84 562.99,555.51 C563.53,555.17 563.73,555.53 563.44,556.30 C562.62,558.42 567.15,563.12 568.74,561.80 C569.68,561.02 569.34,559.63 567.12,555.52 C567.18,555.62 567.24,555.73 567.30,555.83 C571.46,562.97 574.59,570.72 577.12,580.14 C577.71,582.31 578.20,585.10 578.60,588.24 C578.37,587.44 578.08,586.94 577.72,586.58 C576.56,585.41 575.93,585.30 575.40,586.16 C574.34,587.88 574.81,604.44 576.14,612.16 C577.07,617.56 577.54,618.59 578.62,617.66 C579.64,616.77 579.88,613.21 579.63,602.34 ZM 564.34 361.54 C564.56,361.00 564.07,359.74 563.18,358.14 C575.73,377.69 580.65,396.65 579.72,420.89 C579.67,422.26 579.60,423.60 579.52,424.92 C579.46,423.22 579.32,421.45 579.10,420.00 C578.63,416.98 578.19,415.31 578.12,416.31 C578.06,417.30 577.60,417.87 577.10,417.56 C575.73,416.71 575.00,419.59 575.00,425.88 C575.00,431.01 576.14,434.00 578.09,434.00 C578.31,434.00 578.61,433.31 578.88,432.26 C576.93,449.46 571.90,462.94 562.31,477.55 C559.40,481.98 555.78,486.78 554.26,488.21 L 554.09 488.38 C554.51,487.83 554.69,487.35 554.50,487.17 C554.22,486.89 554.70,485.88 555.56,484.93 C556.60,483.78 556.77,482.98 556.07,482.54 C555.48,482.18 555.00,482.61 555.00,483.50 C555.00,484.39 554.55,484.84 554.00,484.50 C553.45,484.16 553.00,484.39 553.00,485.00 C553.00,485.61 552.59,485.86 552.09,485.55 C551.58,485.24 551.00,485.51 550.78,486.15 C550.45,487.16 545.99,485.11 544.00,483.02 C543.12,482.11 540.00,482.19 540.57,483.11 C540.87,483.60 541.74,484.00 542.51,484.00 C543.27,484.00 544.26,484.58 544.70,485.29 C545.08,485.90 546.43,487.15 547.86,488.24 C535.95,479.87 507.55,469.03 493.50,467.50 C490.60,467.19 474.79,465.87 472.25,465.73 C471.34,465.69 471.00,463.03 471.00,456.01 L 471.00 446.34 L 472.50 446.00 C471.63,446.24 471.00,446.58 471.00,446.95 C471.00,448.51 472.25,448.73 475.03,447.68 C476.63,447.08 477.48,446.29 476.91,445.94 C476.25,445.54 474.68,445.56 473.32,445.81 L 476.22 445.14 C487.26,442.59 494.77,435.64 498.12,424.87 C499.72,419.73 500.25,415.74 499.63,411.77 C499.90,412.99 500.07,414.12 500.12,415.12 C500.18,416.43 500.60,415.34 501.04,412.69 C501.49,410.05 502.35,407.28 502.96,406.55 C503.57,405.81 503.94,404.60 503.79,403.86 C503.36,401.84 497.88,397.00 496.02,397.00 C495.13,397.00 493.82,396.44 493.11,395.75 C492.40,395.06 493.11,396.75 494.70,399.50 C495.26,400.46 495.78,401.46 496.27,402.47 C492.74,395.75 485.70,390.63 477.69,388.85 C478.16,388.79 478.79,388.63 479.36,388.42 C481.35,387.65 480.30,385.00 478.00,385.00 C477.02,385.00 475.94,384.30 475.61,383.44 C475.28,382.58 474.60,382.13 474.09,382.44 C473.59,382.76 472.94,382.45 472.66,381.76 C472.39,381.07 472.12,381.48 472.08,382.67 C472.04,383.86 471.74,385.51 471.42,386.34 C471.12,387.13 471.38,387.64 472.33,387.97 L 471.00 387.77 L 471.00 308.00 L 476.31 308.00 C482.97,308.00 500.73,311.26 508.00,313.82 C529.10,321.24 545.90,333.79 558.87,351.82 C555.75,347.79 552.21,344.07 550.84,344.02 C550.47,344.01 550.40,345.24 550.68,346.75 C550.96,348.26 551.13,351.62 551.07,354.20 L 550.94 358.91 L 555.22 359.98 C557.57,360.56 560.17,361.46 561.00,361.96 C563.13,363.27 563.71,363.20 564.34,361.54 ZM 666.98 669.25 L 667.00 635.00 L 667.00 717.00 L 615.17 717.00 C603.55,717.00 592.76,716.96 584.03,716.89 C586.20,716.73 586.96,716.38 586.75,715.75 C586.53,715.06 584.35,714.26 581.92,713.97 C576.01,713.27 574.54,712.32 576.42,710.44 C577.21,709.65 578.29,709.00 578.81,709.00 C579.34,709.00 579.62,707.54 579.45,705.75 C579.27,703.96 579.10,701.84 579.06,701.03 C579.01,699.72 566.00,711.62 566.00,712.99 C566.00,713.29 568.14,713.48 570.75,713.40 C573.36,713.33 574.94,713.47 574.25,713.72 C573.56,713.97 573.00,714.80 573.00,715.58 C573.00,716.23 573.58,716.61 575.19,716.81 C567.59,716.72 562.93,716.60 562.80,716.47 C562.51,716.18 566.44,711.74 571.52,706.61 C587.50,690.48 599.29,670.77 606.13,648.75 L 609.80 636.93 C609.69,637.48 609.54,638.13 609.37,638.75 C609.01,640.10 609.21,641.00 609.88,641.00 C610.50,641.00 611.00,640.52 611.00,639.94 C611.00,639.36 611.45,639.16 612.00,639.50 C612.55,639.84 613.00,639.57 613.00,638.89 C613.00,638.22 613.28,637.95 613.62,638.29 C614.23,638.90 617.00,636.68 617.00,635.57 C617.00,634.81 611.54,634.86 610.25,635.48 L 610.40 635.00 L 662.50 635.00 C657.53,635.00 656.84,635.99 660.25,638.25 C662.38,639.66 662.52,640.53 662.89,654.12 C663.11,662.22 663.59,667.41 664.00,666.00 C664.39,664.60 664.78,668.86 664.87,675.68 C664.97,683.04 664.63,688.11 664.02,688.49 C662.57,689.38 662.73,703.33 664.19,704.79 C665.12,705.72 665.57,705.71 666.18,704.74 C666.61,704.06 666.98,688.09 666.98,669.25 ZM 537.21 332.04 C538.52,332.71 537.68,331.50 535.25,329.21 C530.04,324.33 527.30,322.51 523.86,321.67 C521.63,321.12 521.16,321.39 520.77,323.45 C520.18,326.49 520.85,327.53 524.00,328.49 C526.85,329.35 530.19,332.48 529.26,333.41 C528.92,333.75 530.05,333.32 531.78,332.46 C534.28,331.21 535.40,331.13 537.21,332.04 ZM 577.46 395.32 C578.17,392.46 575.38,382.36 573.70,381.72 C570.21,380.38 569.21,386.96 571.96,393.18 C574.13,398.08 576.53,399.01 577.46,395.32 ZM 495.00 314.36 C495.00,314.75 495.98,314.55 497.18,313.91 L 499.35 312.74 L 496.78 311.39 C495.36,310.65 491.57,309.78 488.35,309.45 L 482.50 308.87 L 486.25 312.18 C488.31,314.01 490.00,316.14 490.00,316.92 C490.00,317.91 490.77,317.63 492.50,316.00 C493.88,314.71 495.00,313.97 495.00,314.36 ZM 526.61 472.67 C526.45,469.63 525.25,469.03 519.25,469.02 C514.83,469.00 514.00,469.29 514.00,470.82 C514.00,472.12 515.37,473.08 518.75,474.14 C524.54,475.97 526.76,475.55 526.61,472.67 ZM 517.89 705.23 C521.42,704.47 524.10,701.52 522.65,699.98 C521.76,699.03 522.06,699.03 524.00,699.99 C526.30,701.14 526.38,701.10 524.94,699.59 C523.54,698.12 523.01,698.10 519.94,699.38 C515.30,701.32 510.84,704.93 511.59,706.15 C511.93,706.69 512.94,706.82 513.85,706.44 C514.76,706.06 516.58,705.51 517.89,705.23 ZM 500.44 432.31 C500.71,431.59 500.52,431.00 500.00,431.00 C499.48,431.00 499.35,430.26 499.69,429.36 C500.96,426.05 497.49,428.66 495.24,432.71 L 492.98 436.77 L 496.46 435.19 C498.37,434.32 500.16,433.03 500.44,432.31 ZM 474.07 640.54 C474.58,640.86 475.00,640.67 475.00,640.13 C475.00,639.59 475.71,638.44 476.57,637.57 C478.00,636.14 477.81,636.00 474.45,636.00 C470.84,636.00 470.77,636.08 471.38,639.12 C471.72,640.84 472.07,642.98 472.15,643.88 C472.23,644.77 472.49,644.25 472.72,642.73 C472.95,641.21 473.56,640.23 474.07,640.54 ZM 360.06 394.00 C360.58,394.00 361.00,392.65 361.00,391.00 C361.00,389.35 360.58,388.00 360.06,388.00 C359.55,388.00 358.95,386.54 358.72,384.75 C358.50,382.96 358.32,386.00 358.33,391.50 C358.33,397.00 358.51,399.81 358.73,397.75 C358.94,395.69 359.54,394.00 360.06,394.00 ZM 483.12 513.00 C483.67,513.00 483.61,512.14 482.97,510.94 C482.08,509.28 481.57,509.11 480.43,510.06 C478.45,511.70 478.57,514.38 480.58,513.61 C481.45,513.27 482.59,513.00 483.12,513.00 ZM 372.47 314.95 C371.59,313.53 369.29,313.80 368.68,315.40 C368.38,316.17 368.39,317.06 368.70,317.37 C369.60,318.26 373.12,316.00 372.47,314.95 ZM 596.80 676.67 C596.96,674.22 596.77,673.84 595.97,675.00 C593.31,678.85 593.14,679.58 594.87,679.72 C596.12,679.81 596.64,678.98 596.80,676.67 ZM 570.36 563.50 C570.68,562.67 570.50,562.00 569.97,562.00 C569.44,562.00 569.00,562.67 569.00,563.50 C569.00,564.33 569.18,565.00 569.39,565.00 C569.61,565.00 570.05,564.33 570.36,563.50 ZM 494.00 587.00 C494.00,586.45 493.52,586.00 492.94,586.00 C492.36,586.00 492.16,586.45 492.50,587.00 C492.84,587.55 493.32,588.00 493.56,588.00 C493.80,588.00 494.00,587.55 494.00,587.00 ZM 549.59 489.46 C550.99,490.38 551.60,490.50 552.44,489.93 L 551.50 490.82 Z" fill="rgb(70,43,22)"/>
<path d="M 0.00 512.00 L 0.00 0.00 L 512.00 0.00 L 1024.00 0.00 L 1024.00 512.00 L 1024.00 1024.00 L 512.00 1024.00 L 0.00 1024.00 L 0.00 512.00 ZM 438.75 512.25 L 439.00 308.00 L 398.00 308.00 L 357.00 308.00 L 357.00 511.83 C357.00,623.94 357.31,715.97 357.68,716.34 C358.05,716.72 376.39,716.90 398.43,716.76 L 438.50 716.50 L 438.75 512.25 ZM 493.62 714.02 C536.43,705.55 570.24,670.72 578.51,626.60 C580.67,615.09 579.94,590.59 577.12,580.14 C574.59,570.72 571.46,562.97 567.30,555.83 C565.49,552.71 564.00,549.85 564.00,549.47 C564.00,546.42 546.87,527.38 537.90,520.44 C532.25,516.07 512.76,505.70 506.75,503.87 C499.45,501.64 480.23,498.00 475.76,498.00 L 470.98 498.00 L 471.24 538.24 L 471.50 578.48 L 476.10 579.13 C484.42,580.32 493.13,586.53 496.97,594.00 C501.05,601.95 500.37,614.24 495.43,622.10 C490.78,629.49 480.42,636.00 473.32,636.00 L 471.00 636.00 L 471.00 675.92 C471.00,706.03 471.29,715.93 472.20,716.23 C474.26,716.92 484.12,715.90 493.62,714.02 ZM 667.00 676.00 L 667.00 635.00 L 638.70 635.00 L 610.40 635.00 L 606.13 648.75 C599.29,670.77 587.50,690.48 571.52,706.61 C566.44,711.74 562.51,716.18 562.80,716.47 C563.10,716.76 586.66,717.00 615.17,717.00 L 667.00 717.00 L 667.00 676.00 ZM 562.31 477.55 C573.91,459.88 578.83,443.85 579.72,420.89 C580.75,394.07 574.61,373.72 558.90,351.87 C545.93,333.81 529.12,321.25 508.00,313.82 C500.73,311.26 482.97,308.00 476.31,308.00 L 471.00 308.00 L 471.00 347.89 L 471.00 387.77 L 475.72 388.48 C484.54,389.80 492.47,395.21 496.29,402.50 C500.46,410.46 500.90,415.92 498.12,424.87 C494.77,435.64 487.26,442.59 476.22,445.14 L 471.00 446.34 L 471.00 456.01 C471.00,463.03 471.34,465.69 472.25,465.73 C474.79,465.87 490.60,467.19 493.50,467.50 C507.61,469.04 536.18,479.96 548.00,488.34 L 551.50 490.82 L 554.26 488.21 C555.78,486.78 559.40,481.98 562.31,477.55 Z" fill="rgb(238,232,221)"/>
</g>
</svg>
